<?xml version="1.0" standalone="no"?>
<!DOCTYPE svg PUBLIC "-//W3C//DTD SVG 20010904//EN"
 "http://www.w3.org/TR/2001/REC-SVG-20010904/DTD/svg10.dtd">
<svg version="1.0" xmlns="http://www.w3.org/2000/svg"
 width="140" height="50" viewBox="0 0 243.000000 67.000000"
 preserveAspectRatio="xMidYMid meet">

<g transform="translate(0.000000,67.000000) scale(0.100000,-0.100000)"
fill="#334155" stroke="none">
<path d="M1030 521 l0 -70 -27 15 c-81 41 -153 -23 -153 -136 0 -61 22 -104
62 -121 31 -13 75 -5 101 18 15 15 17 15 17 0 0 -13 9 -17 34 -17 32 0 34 2
40 46 3 26 6 111 6 190 l0 144 -40 0 -40 0 0 -69z m-12 -113 c18 -18 15 -108
-5 -130 -42 -47 -100 0 -90 73 3 22 11 46 17 54 15 18 61 20 78 3z"/>
<path d="M1350 520 c0 -38 -2 -70 -5 -70 -3 0 -17 7 -30 16 -55 36 -136 -14
-151 -92 -9 -47 1 -103 24 -133 33 -44 100 -52 136 -15 15 14 17 14 22 0 4
-10 18 -16 40 -16 l34 0 0 190 0 190 -35 0 -35 0 0 -70z m-14 -125 c18 -28 15
-95 -6 -120 -16 -20 -55 -19 -74 1 -18 18 -22 95 -6 125 16 29 65 25 86 -6z"/>
<path d="M195 568 c-32 -17 -45 -39 -45 -78 0 -37 23 -80 43 -80 7 0 18 -4 26
-9 11 -7 4 -19 -32 -56 -39 -39 -47 -53 -47 -84 0 -69 16 -75 198 -72 180 2
185 5 180 81 -3 40 -7 48 -40 69 l-38 24 45 48 c38 41 45 54 45 89 0 35 -4 43
-32 60 -28 17 -51 20 -158 20 -71 0 -134 -5 -145 -12z m178 -34 c10 -10 -97
-103 -119 -104 -27 0 -74 36 -74 57 0 39 30 53 110 53 42 0 79 -3 83 -6z m107
-19 c8 -10 10 -22 4 -33 -15 -29 -260 -262 -275 -262 -21 0 -39 20 -39 43 0
26 249 266 276 267 12 0 27 -7 34 -15z m-13 -212 c29 -11 34 -18 31 -41 -3
-27 -4 -27 -103 -34 -55 -3 -102 -4 -104 -2 -3 2 20 26 50 54 57 51 59 52 126
23z"/>
<path d="M655 470 c-57 -23 -88 -96 -74 -175 12 -70 84 -108 166 -88 32 7 39
13 41 37 3 25 1 27 -20 20 -39 -14 -90 -9 -104 11 -28 38 -18 45 66 45 l80 0
0 43 c0 49 -19 81 -60 102 -32 16 -64 18 -95 5z m72 -52 c6 -7 13 -21 16 -30
6 -16 0 -18 -43 -18 -54 0 -62 10 -33 42 19 21 46 24 60 6z"/>
<path d="M1598 461 c-31 -25 -38 -26 -38 -6 0 10 -11 15 -35 15 l-35 0 0 -190
0 -190 35 0 35 0 0 70 c0 39 2 70 5 70 3 0 17 -7 30 -16 58 -38 138 15 150 99
8 52 -8 117 -34 141 -31 28 -82 31 -113 7z m62 -60 c16 -31 12 -102 -7 -123
-38 -42 -93 -6 -93 62 0 20 7 46 16 58 20 28 69 30 84 3z"/>
<path d="M1843 469 c-26 -8 -33 -15 -33 -35 0 -21 4 -25 18 -19 42 17 79 17
95 0 31 -31 26 -35 -65 -50 -44 -7 -78 -45 -78 -87 0 -34 39 -78 69 -78 25 0
71 20 71 32 0 4 5 8 10 8 6 0 10 -7 10 -16 0 -11 8 -14 33 -12 l32 3 -1 103
c0 96 -2 104 -25 128 -29 29 -86 39 -136 23z m93 -173 c-13 -54 -86 -54 -86
-1 0 19 7 26 28 31 15 3 32 7 37 9 18 5 28 -13 21 -39z"/>
<path d="M2044 453 c4 -10 27 -71 52 -135 42 -107 45 -119 32 -145 -10 -21
-21 -29 -46 -31 -26 -3 -32 -7 -32 -27 0 -53 94 -40 129 19 20 33 121 304 121
325 0 8 -12 11 -32 9 -32 -3 -33 -5 -60 -97 -16 -52 -29 -96 -31 -97 -1 -2
-15 42 -31 97 l-29 99 -40 0 c-33 0 -38 -3 -33 -17z"/>
</g>
</svg>
